<svg xmlns="http://www.w3.org/2000/svg" width="290.529" height="59.43" viewBox="0 0 290.529 59.43">
  <g id="Group_108" data-name="Group 108" transform="translate(-980.201 -417.981)">
    <path id="Path_117" data-name="Path 117" d="M0,14.858V44.572L25.734,59.43,51.467,44.572V14.858L34.378,4.991,25.734,0Z" transform="translate(980.201 417.981)" fill="#747474"/>
    <path id="Path_118" data-name="Path 118" d="M18.73,34.658V60.713L41.3,73.742,63.86,60.713V34.658L41.3,21.63Z" transform="translate(964.639 400.01)" fill="#e9edf6"/>
    <g id="Layer_1-2" data-name="Layer 1-2" transform="translate(987.697 427.008)">
      <path id="Path_119" data-name="Path 119" d="M62.389,53.36l-8.944,5.325V69.262L44.31,74.255v10.15L62.242,94.679,80.7,84.426V63.637Zm14.32,28.714L62.267,90.1,48.294,82.091V76.62l5.151-2.82v5.043l8.966,5.769,8.966-5.762V69.463l-8.946-5.116-3,1.639v4.551L62.4,68.915l5.009,2.861v4.906l-4.99,3.2-4.985-3.2V60.949l5.014-2.984,14.262,8Z" transform="translate(-44.31 -53.36)" fill="#747474"/>
    </g>
    <path id="Path_120" data-name="Path 120" d="M369.27,88.73q7.863,0,7.863,7.863v1.573a9.239,9.239,0,0,1-1.069,4.718,9.222,9.222,0,0,1,1.069,4.718v1.573q0,7.865-7.863,7.865H347.25V88.73Zm0,6.291H353.538v4.718H369.27a1.39,1.39,0,0,0,1.572-1.573V96.593A1.39,1.39,0,0,0,369.27,95.021Zm-15.733,4.718v11.009H369.27a1.39,1.39,0,0,0,1.572-1.573V107.6a1.39,1.39,0,0,0-1.572-1.572H356.681Z" transform="translate(691.694 344.261)" fill="#747474"/>
    <path id="Path_121" data-name="Path 121" d="M564.512,101.432V82.555L570.8,79.41v22.022q0,7.865-7.865,7.865H548.783q-7.865,0-7.863-7.865V80.987h6.291v20.445a1.39,1.39,0,0,0,1.572,1.573h14.156A1.391,1.391,0,0,0,564.512,101.432Z" transform="translate(530.786 352.005)" fill="#747474"/>
    <path id="Path_122" data-name="Path 122" d="M739.011,117.04H732.72V88.73h6.291Z" transform="translate(371.433 344.261)" fill="#747474"/>
    <path id="Path_123" data-name="Path 123" d="M796.381,110.749v6.291H790.09V88.73h22.019q7.865,0,7.865,7.863v12.583q0,7.865-7.865,7.865H799.526Zm0,0h15.733a1.391,1.391,0,0,0,1.573-1.573V96.593a1.391,1.391,0,0,0-1.573-1.572H796.381Z" transform="translate(323.768 344.261)" fill="#747474"/>
    <path id="Path_124" data-name="Path 124" d="M990.041,110.749h20.447l-3.146,6.291H983.75V88.73h6.291Z" transform="translate(162.869 344.261)" fill="#747474"/>
    <path id="Path_125" data-name="Path 125" d="M1153.581,98.287v9.436l-6.291,3.146V80.987h6.291V92h17.3V82.555l6.291-3.145V109.3h-6.291V98.287Z" transform="translate(26.994 352.005)" fill="#747474"/>
    <path id="Path_126" data-name="Path 126" d="M1366.872,101.432V82.555l6.291-3.145v22.022q0,7.865-7.865,7.865h-14.154q-7.866,0-7.865-7.865V80.987h6.291v20.445a1.391,1.391,0,0,0,1.573,1.573H1365.3A1.391,1.391,0,0,0,1366.872,101.432Z" transform="translate(-135.841 352.005)" fill="#747474"/>
    <path id="Path_127" data-name="Path 127" d="M1562.779,88.73q7.865,0,7.865,7.863v1.573a9.227,9.227,0,0,1-1.071,4.718,9.233,9.233,0,0,1,1.071,4.718v1.573q0,7.865-7.865,7.865H1540.76V88.73Zm0,6.291h-15.733v4.718h15.733a1.391,1.391,0,0,0,1.573-1.573V96.593A1.391,1.391,0,0,0,1562.779,95.021Zm-15.733,4.718v11.009h15.733a1.391,1.391,0,0,0,1.573-1.573V107.6a1.391,1.391,0,0,0-1.573-1.572H1550.2Z" transform="translate(-299.914 344.261)" fill="#747474"/>
  </g>
</svg>
