<svg xmlns="http://www.w3.org/2000/svg" width="20.394" height="20.438" viewBox="0 0 20.394 20.438">
  <path id="external-link" d="M1.315-.334h5.7L9.34,2.294H3.671a1.023,1.023,0,0,0-1.02,1.02V16.105a1.024,1.024,0,0,0,1.02,1.02H16.619a1.024,1.024,0,0,0,1.02-1.02V10.318l2.65,2.2v5.915a1.319,1.319,0,0,1-1.315,1.315H1.315A1.319,1.319,0,0,1,0,18.438V.981A1.319,1.319,0,0,1,1.315-.334ZM20.394-.685,9.922-.222l3.34,3.34L5.909,10.47,9.134,13.7l7.353-7.353,3.4,3.4Z" transform="translate(0 0.685)" fill="#fff" fill-rule="evenodd"/>
</svg>
